<?xml version="1.0" standalone="no"?>
<!DOCTYPE svg PUBLIC "-//W3C//DTD SVG 20010904//EN"
 "http://www.w3.org/TR/2001/REC-SVG-20010904/DTD/svg10.dtd">
<svg version="1.0" xmlns="http://www.w3.org/2000/svg"
 width="900.000000pt" height="520.000000pt" viewBox="0 0 900.000000 520.000000"
 preserveAspectRatio="xMidYMid meet">

<g transform="translate(0.000000,520.000000) scale(0.100000,-0.100000)"
fill="#000000" stroke="none">
<path d="M5826 3811 c-4 -5 3 -7 14 -4 23 6 26 13 6 13 -8 0 -17 -4 -20 -9z"/>
<path d="M5966 3755 c4 -8 11 -15 16 -15 6 0 5 6 -2 15 -7 8 -14 15 -16 15 -2
0 -1 -7 2 -15z"/>
<path d="M5840 3571 c0 -5 7 -12 16 -15 14 -5 15 -4 4 9 -14 17 -20 19 -20 6z"/>
<path d="M6668 3533 c12 -2 32 -2 45 0 12 2 2 4 -23 4 -25 0 -35 -2 -22 -4z"/>
<path d="M6752 3524 c9 -3 19 -13 22 -22 3 -12 4 -12 3 3 -1 12 -10 21 -22 22
-15 1 -15 0 -3 -3z"/>
<path d="M6338 3443 c7 -3 16 -2 19 1 4 3 -2 6 -13 5 -11 0 -14 -3 -6 -6z"/>
<path d="M6160 3420 c0 -5 7 -10 16 -10 8 0 12 5 9 10 -3 6 -10 10 -16 10 -5
0 -9 -4 -9 -10z"/>
<path d="M6065 3310 c3 -5 8 -10 11 -10 2 0 4 5 4 10 0 6 -5 10 -11 10 -5 0
-7 -4 -4 -10z"/>
<path d="M5660 3290 c0 -5 5 -10 11 -10 5 0 7 5 4 10 -3 6 -8 10 -11 10 -2 0
-4 -4 -4 -10z"/>
<path d="M6128 3273 c7 -3 16 -2 19 1 4 3 -2 6 -13 5 -11 0 -14 -3 -6 -6z"/>
<path d="M5638 3243 c6 -2 18 -2 25 0 6 3 1 5 -13 5 -14 0 -19 -2 -12 -5z"/>
<path d="M6375 3140 c-3 -5 -1 -10 4 -10 6 0 11 5 11 10 0 6 -2 10 -4 10 -3 0
-8 -4 -11 -10z"/>
<path d="M6266 3013 c-6 -14 -5 -15 5 -6 7 7 10 15 7 18 -3 3 -9 -2 -12 -12z"/>
<path d="M2690 2877 c-80 -19 -138 -52 -201 -118 -118 -120 -130 -265 -32
-395 20 -27 78 -92 129 -145 51 -54 102 -112 113 -130 59 -97 -12 -199 -138
-199 -42 0 -56 5 -85 30 -19 17 -42 50 -52 74 l-19 44 -95 -50 c-52 -28 -99
-54 -104 -59 -4 -4 4 -35 20 -69 68 -153 226 -214 415 -162 177 49 299 204
299 380 0 94 -30 151 -144 271 -164 173 -186 200 -186 235 0 33 23 62 67 85
54 28 121 1 171 -68 l28 -39 92 69 c51 38 92 74 92 79 0 5 -25 36 -55 68 -87
94 -192 127 -315 99z"/>
<path d="M5642 2778 c-96 -62 -113 -76 -117 -102 -2 -17 -23 -170 -45 -341
-22 -170 -43 -326 -45 -345 -14 -105 -35 -266 -35 -272 0 -5 47 -8 105 -8
l104 0 6 35 c10 65 14 100 20 160 4 33 8 67 10 75 2 8 7 40 10 70 16 139 2
148 172 -109 l153 -231 125 0 c98 0 125 3 119 13 -4 6 -91 128 -192 271 -102
142 -185 264 -186 271 0 7 40 55 89 107 50 51 103 107 118 124 l28 31 -18 96
c-9 54 -20 97 -24 97 -4 0 -60 -60 -124 -132 -130 -147 -214 -238 -220 -238
-2 0 -1 8 1 18 2 9 15 107 29 217 14 110 28 215 31 233 3 17 3 32 1 32 -2 0
-54 -32 -115 -72z"/>
<path d="M5330 2830 c-8 -5 -10 -10 -5 -10 6 0 17 5 25 10 8 5 11 10 5 10 -5
0 -17 -5 -25 -10z"/>
<path d="M5408 2793 c6 -2 18 -2 25 0 6 3 1 5 -13 5 -14 0 -19 -2 -12 -5z"/>
<path d="M6420 2630 c0 -5 -10 -10 -22 -11 -19 -1 -18 -2 6 -10 17 -4 32 -6
35 -4 2 3 -1 5 -7 5 -6 0 -9 7 -6 15 4 8 3 15 0 15 -3 0 -6 -4 -6 -10z"/>
<path d="M3450 2573 c-103 -17 -194 -66 -276 -148 -134 -132 -138 -146 -214
-750 -11 -88 -23 -177 -26 -197 l-6 -38 96 0 c53 0 96 3 96 8 0 4 9 77 20 162
11 85 20 156 20 157 0 2 21 -11 46 -27 80 -50 214 -65 329 -35 187 49 345 226
375 422 43 274 -182 493 -460 446z m157 -214 c77 -37 119 -120 110 -219 -6
-74 -34 -127 -97 -184 -86 -76 -192 -96 -285 -52 -59 27 -77 46 -104 106 -79
174 97 397 294 373 22 -2 59 -14 82 -24z"/>
<path d="M4381 2564 c-287 -77 -469 -406 -357 -649 72 -159 202 -233 390 -223
60 4 105 12 131 24 43 21 43 22 67 210 l6 41 -50 -33 c-139 -94 -291 -64 -360
71 -58 111 8 281 134 346 106 54 216 45 284 -26 70 -72 78 -147 44 -406 -11
-85 -22 -166 -25 -181 l-4 -28 93 0 94 0 6 28 c3 15 8 52 11 82 4 30 8 66 10
80 41 276 42 344 5 442 -66 178 -279 276 -479 222z"/>
<path d="M5164 2531 c-74 -35 -130 -97 -149 -166 -7 -27 -23 -129 -36 -225
-12 -96 -29 -231 -38 -300 l-17 -125 94 -3 c52 -1 96 -1 98 1 2 2 20 125 39
273 46 347 42 327 66 352 17 19 31 22 93 22 l74 0 6 33 c3 17 8 62 12 100 l7
67 -94 0 c-83 0 -101 -3 -155 -29z"/>
<path d="M6150 2520 c0 -5 5 -10 11 -10 5 0 7 5 4 10 -3 6 -8 10 -11 10 -2 0
-4 -4 -4 -10z"/>
<path d="M6218 2503 c7 -3 16 -2 19 1 4 3 -2 6 -13 5 -11 0 -14 -3 -6 -6z"/>
<path d="M6611 2494 c0 -11 3 -14 6 -6 3 7 2 16 -1 19 -3 4 -6 -2 -5 -13z"/>
</g>
</svg>
